<?xml version="1.0"?><svg version="1.2" baseProfile="tiny-ps" viewBox="0 0 300 300" xmlns="http://www.w3.org/2000/svg" xmlns:xlink="http://www.w3.org/1999/xlink"><title>LockPickSecurity</title><g><g fill="#fff" transform="matrix(.1 0 0 -.1 0 300)"><path d="M1407 2963c-13-21-90-167-170-326l-147-287 171 2 172 3 56 107c31 59 58 108 61 108s30-49 60-110l54-110h335l-93 193c-51 105-122 251-157 324l-64 132h-127l-128 1-23-37zm-807-818v-145h210v50H660v240h-60v-145zm740 0v-145h50v68l14 11 13 11 10-12c6-7 18-28 27-45l17-33h29c17 0 30 2 30 4 0 3-16 32-36 66l-37 61 39 40 38 39h-68l-38-37-38-37v154h-50v-145zm347 138c-4-3-7-69-7-145v-138h59l3 53 3 52 40 3c61 4 84 11 105 32l20 20v34c0 48-8 65-41 81l-28 15h-74c-40 0-77-3-80-7zm157-65 11-18-11-17-11-18-47-3-46-3v82l46-3 47-3 11-17zm116 47v-25h60v50h-60v-25zm350-120v-145h50v68l14 11 13 11 10-12c6-7 18-28 27-45l17-33h29c17 0 30 2 30 4 0 3-16 32-36 66l-37 61 32 32c38 40 39 47 4 47h-27l-38-37-38-37v154h-50v-145zm-1433 41-26-24-7-26-6-26 6-34 6-33 19-17c10-9 32-21 49-26l32-8 34 9 35 10 21 26 20 26v89l-29 29-29 29h-99l-26-24zm107-32 16-15v-68l-16-15c-20-21-43-20-66 1l-18 16v60l17 19c20 22 46 23 67 2zm141 31-25-24-2-28c-2-48 3-77 18-100l14-22 35-10 35-9 35 9 35 10 15 28 14 29-25 6-26 7-15-21-14-20h-38l-15 22c-9 12-16 32-16 43s7 31 16 43l15 22h18c10 0 24-7 31-15l13-16 20 3c11 2 22 8 24 15l4 11-22 21-23 21h-97l-24-25zm835-80v-105h60v210h-60v-105zm143 90-22-16-10-36-11-37 11-38 10-38 24-16 24-16 35-1 35-1 24 13c14 7 30 24 35 36l11 23-26 7-25 6-15-21-14-20h-39l-16 25-16 25 6 35 7 35 25 6 25 6 18-16c20-18 47-21 56-5l7 10-23 25-22 24h-93l-21-15zm-907-241c-9-8-16-19-16-23 0-13 33-39 54-42 11-2 21-10 24-16l4-13-18-7-17-6-12 16c-7 10-17 17-24 17-15 0-14-23 1-38l12-12h64l12 15 12 14-4 18-3 18-39 18-39 19 13 8 14 9 19-10c10-6 23-9 29-7l11 4-17 17-17 17h-48l-15-16zm534 1v-17l11 4c6 2 11 8 11 13s-5 11-11 13l-11 4v-17zm52-12-9-18 6-45 6-45 23-3 22-3v10c0 6-4 11-10 11h-10v58l13 6 12 6-12 6c-7 3-13 12-13 20 0 20-17 18-28-3zm-461-27-12-15 3-27 3-27 16-10 16-10 26 7 27 6v22l-30-7-30-7v22h60v18c0 24-19 42-46 42h-22l-11-14zm54-16 6-10h-41v10c0 6 6 10 14 10s18-4 21-10zm57 18c-7-7-12-24-12-38s5-31 12-38l12-12h57l6 15c8 22-4 30-21 16l-15-13-11 7-10 6v51l30-7 30-7v10c0 22-59 29-78 10zm98-25c0-21 4-44 8-50l8-13 37 2 37 1v97h-19l-3-37-3-38-17-3-18-3v81h-30v-37zm120-13v-50h30v71l15 5c8 4 15 10 15 15v9h-60v-50zm80 1v-51h31l-3 47-3 46-12 5-13 4v-51zm110 39c0-5 7-28 17-51l16-42-16-12c-22-16-21-25 2-25 24 0 33 12 59 83l21 57h-27l-12-32-12-33-14 33c-13 30-34 44-34 22zM787 1758c-19-35-99-189-177-343s-146-284-151-289l-8-9-174 166-174 166-31-32-32-33 183-182 183-183-84-167-84-167-5-65-5-65 22-57 21-57 49-44 50-45 26-6c15-4 28-5 30-3 3 2 7 28 11 56l6 52-31 32c-34 36-52 75-52 115v27l76 148 76 148 286-279c158-154 371-361 474-461L1459-1l41 37 41 37 38-37 38-37 469 456 469 457 78-162 79-161-7-46-7-47-36-35-36-36 3-55c2-30 5-57 6-58 9-10 80 23 111 51l35 30 24 46 23 47 7 46 7 47-12 53-13 52-79 165-80 166 172 165 171 165-1 41v42l-15 12-16 13-172-171c-95-95-176-172-180-172s-86 160-181 355l-174 355h-332v-8c0-5 40-89 89-188l88-179 102-34c55-19 107-39 115-45 7-6 52-91 99-188l85-178-439-427c-242-236-446-430-452-432-7-2 30 39 81 91l92 93-32 32-31 32-90-85c-49-46-94-84-100-84-5 0-49 38-96 85l-87 85-32-33-32-32 92-92 93-93h-13c-7 0-110 96-230 212-119 117-320 313-445 436l-228 222 98 192 98 192 107 35c59 20 111 41 116 46 5 6 48 85 96 178l87 167H821l-34-62zm604-188c-114-41-208-123-255-224l-25-52-12-66-12-67 10-64 11-64 28-59 28-59 57-58 58-58 63-29 63-29 64-10 64-10 70 9 70 10 66 32 65 31 54 53 53 54 30 64 30 63 10 62 9 61-9 61-10 60-25 54c-35 76-72 122-139 172l-59 43-65 20-65 20h-87l-86-1-54-19zm311-73c30-15 76-45 101-68l46-40 33-67 33-67v-190l-32-66-33-66-46-43-45-42-57-26-57-27h-210l-57 27-57 27-49 45-48 45-30 58-29 58v210l28 53c52 98 129 165 230 198l42 14 91-3 90-3 56-27zm-273-135-54-28-32-47-32-48-7-45-6-45 12-44 12-44 35-41c40-46 72-65 134-79l43-10 50 10 51 9 37 25 38 25 25 39 26 38 2 28 2 27-43 13-43 13-33-29-34-29h-39l-41 30-41 29-6-9c-3-6-15-10-26-10h-19v40l35 17 35 17 28-27 28-27h41l17 19c10 11 30 23 45 26l27 6 37-16 37-15v17c0 10-9 36-19 59l-18 40-42 35-41 36-39 11c-21 7-59 12-84 12h-45l-53-28z"/></g><g fill="#e4e4e4" transform="matrix(.1 0 0 -.1 0 300)"><path d="M1406 2962c-32-50-148-282-141-282 3 0 29 49 59 108s68 131 85 160c35 60 33 71-3 14zm375-177c0-5 29-66 64-135s64-120 64-115c0 6-29 66-64 135s-64 121-64 115zm-286-295c-19-38-33-70-30-70 2 0 21 32 40 70 19 39 33 70 30 70-2 0-21-31-40-70zm-355-40-50-100h339l4 8 5 7-164-3c-90-2-164 0-164 3s20 46 45 95c25 50 43 90 40 90s-27-45-55-100zm603-97c48-2 126-2 175 0l87 3h-350l88-3zM600 2145v-145h210v50H660v240h-60v-145zm740 0v-145h50v68l14 11 13 11 10-12c6-7 18-28 27-45l17-33h29c17 0 30 2 30 4 0 3-16 32-36 66l-37 61 39 40 38 39h-68l-38-37-38-37v154h-50v-145zm347 138c-4-3-7-69-7-145v-138h59l3 53 3 52 40 3c61 4 84 11 105 32l20 20v34c0 48-8 65-41 81l-28 15h-74c-40 0-77-3-80-7zm157-65 11-18-11-17-11-18-47-3-46-3v82l46-3 47-3 11-17zm116 47v-25h60v50h-60v-25zm350-120v-145h50v68l14 11 13 11 10-12c6-7 18-28 27-45l17-33h29c17 0 30 2 30 4 0 3-16 32-36 66l-37 61 32 32c38 40 39 47 4 47h-27l-38-37-38-37v154h-50v-145zm-1433 41-26-24-7-26-6-26 6-34 6-33 19-17c10-9 32-21 49-26l32-8 34 9 35 10 21 26 20 26v89l-29 29-29 29h-99l-26-24zm107-32 16-15v-68l-16-15c-20-21-43-20-66 1l-18 16v60l17 19c20 22 46 23 67 2zm141 31-25-24-2-28c-2-48 3-77 18-100l14-22 35-10 35-9 35 9 35 10 15 28 14 29-25 6-26 7-15-21-14-20h-38l-15 22c-9 12-16 32-16 43s7 31 16 43l15 22h18c10 0 24-7 31-15l13-16 20 3c11 2 22 8 24 15l4 11-22 21-23 21h-97l-24-25zm835-80v-105h60v210h-60v-105zm143 90-22-16-10-36-11-37 11-38 10-38 24-16 24-16 35-1 35-1 24 13c14 7 30 24 35 36l11 23-26 7-25 6-15-21-14-20h-39l-16 25-16 25 6 35 7 35 25 6 25 6 18-16c20-18 47-21 56-5l7 10-23 25-22 24h-93l-21-15zm-907-241c-9-8-16-19-16-23 0-13 33-39 54-42 11-2 21-10 24-16l4-13-18-7-17-6-12 16c-7 10-17 17-24 17-15 0-14-23 1-38l12-12h64l12 15 12 14-4 18-3 18-39 18-39 19 13 8 14 9 19-10c10-6 23-9 29-7l11 4-17 17-17 17h-48l-15-16zm534 1v-17l11 4c6 2 11 8 11 13s-5 11-11 13l-11 4v-17zm52-12-9-18 6-45 6-45 23-3 22-3v10c0 6-4 11-10 11h-10v58l13 6 12 6-12 6c-7 3-13 12-13 20 0 20-17 18-28-3zm-461-27-12-15 3-27 3-27 16-10 16-10 26 7 27 6v22l-30-7-30-7v22h60v18c0 24-19 42-46 42h-22l-11-14zm54-16 6-10h-41v10c0 6 6 10 14 10s18-4 21-10zm57 18c-7-7-12-24-12-38s5-31 12-38l12-12h57l6 15c8 22-4 30-21 16l-15-13-11 7-10 6v51l30-7 30-7v10c0 22-59 29-78 10zm98-25c0-21 4-44 8-50l8-13 37 2 37 1v97h-19l-3-37-3-38-17-3-18-3v81h-30v-37zm120-13v-50h30v71l15 5c8 4 15 10 15 15v9h-60v-50zm80 1v-51h31l-3 47-3 46-12 5-13 4v-51zm110 39c0-5 7-28 17-51l16-42-16-12c-22-16-21-25 2-25 24 0 33 12 59 83l21 57h-27l-12-32-12-33-14 33c-13 30-34 44-34 22zm-730-180c-22-44-38-80-35-80s23 36 45 80 38 80 35 80-23-36-45-80zm-370-70c-28-55-48-100-45-100s27 45 55 100 48 100 45 100-27-45-55-100zm1211 97c-1-4 35-79 79-167l80-160h25l-11 8c-6 4-48 79-92 167-45 88-81 157-81 152zm360-62c0-5 38-84 84-175s84-160 84-155c0 6-38 84-84 175s-84 161-84 155zm-1306-164c-19-38-39-71-45-74l-10-5 12 2 13 2 38 72c21 40 36 72 33 72s-21-31-41-69zm483 42c29-2 74-2 100 0l47 3h-200l53-3zm-98-13-15-10 10 1c6 0 19 4 30 9l20 9h-15c-8 0-22-4-30-9zm-62-26c-39-21-35-28 5-8 37 19 44 24 31 24-5-1-21-8-36-16zm428-14c58-33 137-108 160-151 8-16 17-29 20-29 9 0-18 44-52 87l-34 41-61 41c-34 23-66 41-73 41-6 0 12-13 40-30zm-248 3c17-2 47-2 65 0l32 4h-130l33-4zm-70-10c7-3 16-2 19 1 4 3-2 6-13 5l-19-1 13-5zm190 0c7-3 16-2 19 1 4 3-2 6-13 5l-19-1 13-5zm-390-43c-25-22-60-62-77-88-46-72-38-74 10-3l40 60 42 35c23 20 39 36 36 36s-27-18-51-40zm492 7c0-3 12-12 26-22l26-17-6 11c-7 11-46 35-46 28zm-478-71c-22-24-50-62-61-85-32-62-25-63 10-1 16 30 46 72 66 93 21 20 34 37 31 37s-24-20-46-44zm-1180 1-32-33 185-184c102-102 185-182 185-178s-81 87-180 184L50 1383l27 29 27 28 76-72 75-73-75 78c-41 42-75 77-75 77-1 0-15-15-33-33zm1718 30c0-2 15-16 33-33l32-29-29 33c-28 30-36 37-36 29zm1011-164-166-167 162 158 163 158 21-5 20-5-12 14c-6 8-14 14-17 14s-80-75-171-167zm-2066 87c-9-16-13-30-11-30 3 0 12 14 21 30 9 17 13 30 11 30-3 0-12-13-21-30zm1535 20c8-5 20-10 25-10h10l-15 10c-8 5-19 10-25 10h-10l15-10zm-841-28-54-28-32-47-32-48-7-45-6-45 12-44 12-44 35-41c40-46 72-65 134-79l43-10 50 10 51 9 37 25 38 25 25 39 26 38 2 28 2 27-43 13-43 13-33-29-34-29h-39l-41 30-41 29-6-9c-3-6-15-10-26-10h-19v40l35 17 35 17 28-27 28-27h41l17 19c10 11 30 23 45 26l27 6 37-16 37-15v17c0 10-9 36-19 59l-18 40-42 35-41 36-39 11c-21 7-59 12-84 12h-45l-53-28zm-906-116c-38-74-65-132-61-129 10 6 140 263 133 263-2 0-35-60-72-134zm1787 130c0-2 7-7 16-10l15-6-6 10c-6 10-25 14-25 6zm-434-39c3-10 9-15 12-12s0 11-7 18l-12 12 7-18zm945-155-174-167 46-90c25-49 46-87 46-82 1 4-18 44-40 90l-42 82 174 167c96 92 172 167 169 167-3 1-83-75-179-167zm-881 153c0-5 5-17 10-25l10-15v10c0 6-5 17-10 25l-10 15v-10zm-824-30c-3-9-6-22-5-28 0-7 5-1 10 12s8 26 5 28c-2 2-6-3-10-12zm-776-90c35-36 67-65 69-65 3 0-24 29-59 65s-67 65-69 65c-3 0 24-29 59-65zm821 39 1-19 5 13c3 7 2 16-1 19-3 4-6-2-5-13zm1220 11c0-5 27-62 59-125s59-110 59-105c0 6-27 62-59 125s-59 111-59 105zm-1280-21 1-19 5 13c3 7 2 16-1 19-3 4-6-2-5-13zm810 0 1-19 5 13c3 7 2 16-1 19-3 4-6-2-5-13zm61-4v-25l5 13c2 6 2 18 0 25l-5 12v-25zm-819-80v-75l4 38c2 20 2 54 0 75l-4 37v-75zm-549-41c-25-50-44-93-42-95s25 39 51 91 45 95 42 95-25-41-51-91zm489 41v-55l4 28c2 15 2 39 0 55l-4 27v-55zm829 30v-25l5 13c2 6 2 18 0 25l-5 12v-25zm60-30v-35l5 18c2 9 2 25 0 35l-5 17v-35zm-10-80v-25l5 13c2 6 2 18 0 25l-5 12v-25zm-871-1c-1-18 20-82 25-77 2 2-3 24-11 48-7 25-14 38-14 29zm780-86-11-28 15 19c8 11 15 23 15 28 0 15-7 8-19-19zm479-136c-80-79-273-268-430-422l-285-278 180 171c235 224 691 671 685 671-3 1-70-63-150-142zm-2041-8c-38-78-69-143-67-145s36 62 76 141c39 80 70 145 67 145s-37-63-76-141zm811 136c0-20 66-109 109-146 42-38 129-90 148-89 4 1-14 13-42 27-27 14-70 41-94 61l-44 36-38 59c-22 33-39 56-39 52zm70-15c6-11 13-20 16-20 2 0 0 9-6 20s-13 20-16 20c-2 0 0-9 6-20zm695-61c-32-45-80-86-146-124-24-14-39-25-33-25s38 17 71 39l59 38 36 44c37 47 52 69 45 69-2 0-17-18-32-41zM630 937c0-1 89-90 198-197l197-195-195 198C649 926 630 945 630 937zm625-36c22-23 49-47 60-53s18-9 15-6c-3 2-30 26-60 53l-55 49 40-43zm-750 19-6-10 9 2c8 3 313-289 799-765L1458-2l41 38 42 37 38-37 38-37 391 381c216 210 392 385 392 388 0 4-66-59-148-139-81-80-257-252-391-383L1617 9l-38 37-39 38-33-32c-18-18-39-32-46-32-6 0-153 137-324 303-172 167-383 372-469 456L512 931l-7-11zm1304-27-34-38 38 34c20 19 37 36 37 38 0 8-8 0-41-34zm681-38c-24-25-42-45-39-45s25 20 49 45 42 45 39 45-25-20-49-45zM411 743c-28-54-49-99-47-101 2-1 27 42 55 98 29 55 50 100 47 100s-28-44-55-97zm943 83c11-9 24-16 30-16 12 0 7 5-24 19l-25 12 19-15zm274-33c7-3 16-2 19 1 4 3-2 6-13 5l-19-1 13-5zm-150-10c6-2 18-2 25 0l12 5h-50l13-5zm100 0c7-3 16-2 19 1 4 3-2 6-13 5l-19-1 13-5zm87-33-20-9h15c8 0 22 4 30 9l15 10-10-1c-5 0-19-4-30-9zm-257-7c7-3 16-2 19 1 4 3-2 6-13 5l-19-1 13-5zm40-10c6-2 18-2 25 0l12 5h-50l13-5zm160 0c6-2 18-2 25 0l12 5h-50l13-5zm-85-10c9-2 23-2 30 0l12 5h-60l18-5zm1267 6c0-4 7-22 15-40l14-34v15c0 14-28 72-29 59zm-140-13c0-11 40-86 45-86 3 0-4 19-16 43-23 45-29 54-29 43zM241 674l1-19 5 13c3 7 2 16-1 19-3 4-6-2-5-13zm-8-79v-60l4 33c2 18 2 45 0 60l-4 27v-60zm119 0v-30l5 18c2 9 2 23 0 30l-5 12v-30zm2481-25v-45l4 23c2 12 2 32 0 45l-4 22v-45zM1185 390c88-88 162-160 165-160s-67 72-155 160-162 160-165 160 67-72 155-160zm1516 134 1-19 5 13c3 7 2 16-1 19-3 4-6-2-5-13zm-2331-2c0-5 14-21 30-37l30-29 2-40 1-41 4 38 4 38-35 40c-20 21-36 35-36 31zm2451-19c-1-6-4-20-7-30l-6-18 12 18c6 10 9 23 6 30l-4 12-1-12zm-2571-6c-1-18 31-64 67-97l38-35-36 40c-20 22-44 54-52 70-9 17-16 26-17 22zm2401-47c-19-16-33-31-30-34 2-2 20 12 39 30 43 42 37 44-9 4zm97-71c-26-27-45-49-43-49 9 0 76 64 86 81 13 26 11 24-43-32zm-1426-22-32-33 88-84 87-85-83 85-82 86 28 27 28 27 84-85c47-47 90-85 96-85s52 38 101 84l90 85 26-27 27-27-87-90-88-90 92 90 93 89-32 33-31 32-90-84c-49-47-94-85-100-85-5 0-49 38-96 85l-87 85-32-33zm-955 2c7-7 15-10 18-7s-2 9-12 12l-18 7 12-12zm2264-16-1-33h35l-11 8c-7 4-14 18-17 32l-4 25-2-32zm-2223 0c7-3 16-2 19 1 4 3-2 6-13 5l-19-1 13-5zm1019-183c18-19 34-32 36-29 2 2-12 17-32 33l-36 30 32-34z"/></g><g fill="#c4c4c4" transform="matrix(.1 0 0 -.1 0 300)"><path d="M1350 2860c-22-44-38-80-35-80s23 36 45 80 38 80 35 80-23-36-45-80zm135-390c-14-27-23-50-20-50 2 0 16 23 30 50 14 28 23 50 20 50-2 0-16-22-30-50zm-225-110-175-6 172-2 172-2 6 10c3 6 5 9 3 8s-82-5-178-8zm483-7c48-2 126-2 175 0l87 3h-350l88-3zM600 2145v-145h210v50H660v240h-60v-145zm740 0v-145h50v68l14 11 13 11 10-12c6-7 18-28 27-45l17-33h29c17 0 30 2 30 4 0 3-16 32-36 66l-37 61 39 40 38 39h-68l-38-37-38-37v154h-50v-145zm347 138c-4-3-7-69-7-145v-138h59l3 53 3 52 40 3c61 4 84 11 105 32l20 20v34c0 48-8 65-41 81l-28 15h-74c-40 0-77-3-80-7zm157-65 11-18-11-17-11-18-47-3-46-3v82l46-3 47-3 11-17zm116 47v-25h60v50h-60v-25zm350-120v-145h50v68l14 11 13 11 10-12c6-7 18-28 27-45l17-33h29c17 0 30 2 30 4 0 3-16 32-36 66l-37 61 32 32c38 40 39 47 4 47h-27l-38-37-38-37v154h-50v-145zm-1433 41-26-24-7-26-6-26 6-34 6-33 19-17c10-9 32-21 49-26l32-8 34 9 35 10 21 26 20 26v89l-29 29-29 29h-99l-26-24zm107-32 16-15v-68l-16-15c-20-21-43-20-66 1l-18 16v60l17 19c20 22 46 23 67 2zm141 31-25-24-2-28c-2-48 3-77 18-100l14-22 35-10 35-9 35 9 35 10 15 28 14 29-25 6-26 7-15-21-14-20h-38l-15 22c-9 12-16 32-16 43s7 31 16 43l15 22h18c10 0 24-7 31-15l13-16 20 3c11 2 22 8 24 15l4 11-22 21-23 21h-97l-24-25zm835-80v-105h60v210h-60v-105zm143 90-22-16-10-36-11-37 11-38 10-38 24-16 24-16 35-1 35-1 24 13c14 7 30 24 35 36l11 23-26 7-25 6-15-21-14-20h-39l-16 25-16 25 6 35 7 35 25 6 25 6 18-16c20-18 47-21 56-5l7 10-23 25-22 24h-93l-21-15zm-907-241c-9-8-16-19-16-23 0-13 33-39 54-42 11-2 21-10 24-16l4-13-18-7-17-6-12 16c-7 10-17 17-24 17-15 0-14-23 1-38l12-12h64l12 15 12 14-4 18-3 18-39 18-39 19 13 8 14 9 19-10c10-6 23-9 29-7l11 4-17 17-17 17h-48l-15-16zm534 1v-17l11 4c6 2 11 8 11 13s-5 11-11 13l-11 4v-17zm52-12-9-18 6-45 6-45 23-3 22-3v10c0 6-4 11-10 11h-10v58l13 6 12 6-12 6c-7 3-13 12-13 20 0 20-17 18-28-3zm-461-27-12-15 3-27 3-27 16-10 16-10 26 7 27 6v22l-30-7-30-7v22h60v18c0 24-19 42-46 42h-22l-11-14zm54-16 6-10h-41v10c0 6 6 10 14 10s18-4 21-10zm57 18c-7-7-12-24-12-38s5-31 12-38l12-12h57l6 15c8 22-4 30-21 16l-15-13-11 7-10 6v51l30-7 30-7v10c0 22-59 29-78 10zm98-25c0-21 4-44 8-50l8-13 37 2 37 1v97h-19l-3-37-3-38-17-3-18-3v81h-30v-37zm120-13v-50h30v71l15 5c8 4 15 10 15 15v9h-60v-50zm80 1v-51h31l-3 47-3 46-12 5-13 4v-51zm110 39c0-5 7-28 17-51l16-42-16-12c-22-16-21-25 2-25 24 0 33 12 59 83l21 57h-27l-12-32-12-33-14 33c-13 30-34 44-34 22zm-730-180c-22-44-38-80-35-80s23 36 45 80 38 80 35 80-23-36-45-80zm840 25c0-5 5-17 10-25l10-15v10c0 6-5 17-10 25l-10 15v-10zm-497-182c9-2 23-2 30 0l12 5h-60l18-5zm155 0c7-3 16-2 19 1 4 3-2 6-13 5l-19-1 13-5zm103-27c10-9 69-36 69-32 0 6-55 36-66 36-4 0-5-2-3-4zm-183-23c12-2 32-2 45 0l22 4h-90l23-4zm262-17c0-2 8-10 18-17l17-14-14 18c-13 16-21 21-21 13zm620-12c0-6 7-19 16-30l15-19-12 25c-14 31-19 36-19 24zm-1191-41c-34-36-74-89-53-68 24 23 96 105 92 105-2 0-20-17-39-37zm611 24c0-2 15-16 33-33l32-29-29 33c-28 30-36 37-36 29zm277-38c7-7 15-10 18-7s-2 9-12 12l-18 7 12-12zM69 1413l-34-38 35 32 36 33 34-33 35-32-35 38c-18 20-34 37-35 37s-17-17-36-37zm2372 32c0-5 8-26 19-45s19-30 19-25c0 6-8 26-19 45s-19 31-19 25zm529 1c0-2 8-10 18-17l17-14-14 18c-13 16-21 21-21 13zm-1716-28-19-23 23 19c21 18 27 26 19 26-2 0-12-10-23-22zm1576-105-125-128 128 125c70 69 127 126 127 127 0 8-14-6-130-124zm-925 83c10-14 19-26 22-26 7 0-17 39-28 46l-11 6 17-26zm-476-34-54-28-32-47-32-48-7-45-6-45 12-44 12-44 35-41c40-46 72-65 134-79l43-10 50 10 51 9 37 25 38 25 25 39 26 38 2 28 2 27-43 13-43 13-33-29-34-29h-39l-41 30-41 29-6-9c-3-6-15-10-26-10h-19v40l35 17 35 17 28-27 28-27h41l17 19c10 11 30 23 45 26l27 6 37-16 37-15v17c0 10-9 36-19 59l-18 40-42 35-41 36-39 11c-21 7-59 12-84 12h-45l-53-28zm-289-3c-7-11-10-23-7-25 2-2 9 7 15 21 14 30 7 33-8 4zm1170 17c0-2 7-7 16-10l15-6-6 10c-6 10-25 14-25 6zm600-113-85-88 88 85c48 46 87 86 87 87 0 8-11-3-90-84zm-2665-83c88-88 162-160 165-160s-67 72-155 160-162 160-165 160 67-72 155-160zm75 58c24-27 45-48 47-48 8 0 0 9-44 50l-48 45 45-47zm2061 27c0-5 6-21 14-35s14-20 14-15c0 6-6 21-14 35s-14 21-14 15zm-410-21 1-19 5 13c3 7 2 16-1 19-3 4-6-2-5-13zm-878-84v-55l4 28c2 15 2 39 0 55l-4 27v-55zm1323 27c3-10 9-15 12-12s0 11-7 18l-12 12 7-18zm-434-27v-35l5 18c2 9 2 25 0 35l-5 17v-35zm-11-86 1-19 5 13c3 7 2 16-1 19-3 4-6-2-5-13zm-870-10 1-19 5 13c3 7 2 16-1 19-3 4-6-2-5-13zm1578-21-34-38 38 34c20 19 37 36 37 38 0 8-8 0-41-34zm-254-125-80-83 83 80c76 74 87 85 79 85-1 0-38-37-82-82zM360 930c-17-33-28-60-25-60 2 0 18 27 35 60s28 60 25 60c-2 0-18-27-35-60zm770 54c0-6 7-19 16-30l15-19-12 25c-14 31-19 36-19 24zm769-71-14-18 18 14c16 13 21 21 13 21-2 0-10-8-17-17zM680 885c19-19 36-35 39-35s-10 16-29 35-36 35-39 35 10-16 29-35zm580 10c13-14 26-25 28-25 3 0-5 11-18 25s-26 25-28 25c-3 0 5-11 18-25zM665 770c71-71 132-130 135-130 2 0-54 59-125 130-71 72-132 130-135 130-2 0 54-58 125-130zm550 90c21-22 41-40 44-40s-13 18-34 40-41 40-44 40 13-18 34-40zm634-7-34-38 38 34c20 19 37 36 37 38 0 8-8 0-41-34zm620-20-24-28 28 24c25 23 32 31 24 31-2 0-14-12-28-27zM775 790c21-22 41-40 44-40s-13 18-34 40-41 40-44 40 13-18 34-40zm499 21c7-11 46-35 46-28 0 3-12 12-26 22l-26 17 6-11zM262 735c-17-37-14-45 4-12 9 16 14 31 11 33-2 2-9-7-15-21zm1186-2c7-3 16-2 19 1 4 3-2 6-13 5l-19-1 13-5zm170 0c7-3 16-2 19 1 4 3-2 6-13 5l-19-1 13-5zm-95-10c9-2 23-2 30 0l12 5h-60l18-5zM385 690c-9-16-13-30-11-30 3 0 12 14 21 30 9 17 13 30 11 30-3 0-12-13-21-30zm1690-112-140-143 143 140c132 130 147 145 139 145-1 0-65-64-142-142zm575 138c0-11 40-86 45-86 3 0-4 19-16 43-23 45-29 54-29 43zm-460-153-115-118 118 115c109 107 122 120 114 120-1 0-54-53-117-117zM233 595v-60l4 33c2 18 2 45 0 60l-4 27v-60zm2600-25v-45l4 23c2 12 2 32 0 45l-4 22v-45zM1010 435c85-85 157-155 160-155s-65 70-150 155-157 155-160 155 65-70 150-155zm115 15c55-55 102-100 105-100 2 0-40 45-95 100s-102 100-105 100c-2 0 40-45 95-100zm-735 46c0-2 8-10 18-17l17-14-14 18c-13 16-21 21-21 13zm-122-41c6-11 27-36 48-55l38-35-44 50c-24 28-46 52-48 55-3 3 0-4 6-15zm164-45v-35l5 18c2 9 2 25 0 35l-5 17v-35zm2193 19c-4-6-5-12-2-15 2-3 7 2 10 11 7 17 1 20-8 4zm124-56-34-38 38 34c20 19 37 36 37 38 0 8-8 0-41-34zm-1359-25c41-45 50-53 50-45 0 2-21 23-47 47l-48 45 45-47zm319 25-13-18 14 12 14 13 20-18 21-17-19 23c-23 26-20 26-37 5zM367 359c7-7 15-10 18-7s-2 9-12 12l-18 7 12-12zm1393-86-85-88 88 85c48 46 87 86 87 87 0 8-11-3-90-84zM408 343c7-3 16-2 19 1 4 3-2 6-13 5l-19-1 13-5zm1365-18v-14l9 5 8 5-5 10c-9 13-12 11-12-6zm52-117L1695 75l133 130c72 71 132 131 132 132 0 8-15-6-135-129zm805 119v-17h35l-10 8c-5 4-13 11-17 16l-8 9v-16zm-1065-87-19-21-15 6-16 6 13-13 12-12 27 27c15 15 25 27 22 27s-14-9-24-20zm-230-120c66-66 122-120 125-120 2 0-49 54-115 120s-122 120-125 120c-2 0 49-54 115-120zm65 66c0-2 8-10 18-17l17-14-14 18c-13 16-21 21-21 13zm99-143-34-38 38 34 37 35 43-40 42-39-40 43c-21 23-42 42-45 42s-22-17-41-37z"/></g><g fill="#9f9f9f" transform="matrix(.1 0 0 -.1 0 300)"><path d="M1370 2900c-11-22-18-40-15-40 2 0 14 18 25 40s18 40 15 40c-2 0-14-18-25-40zm-267-547c9-2 25-2 35 0l17 5h-70l18-5zm850 0c9-2 25-2 35 0l17 5h-70l18-5zM600 2145v-145h210v50H660v240h-60v-145zm740 0v-145h50v68l14 11 13 11 10-12c6-7 18-28 27-45l17-33h29c17 0 30 2 30 4 0 3-16 32-36 66l-37 61 39 40 38 39h-68l-38-37-38-37v154h-50v-145zm347 138c-4-3-7-69-7-145v-138h59l3 53 3 52 40 3c61 4 84 11 105 32l20 20v34c0 48-8 65-41 81l-28 15h-74c-40 0-77-3-80-7zm157-65 11-18-11-17-11-18-47-3-46-3v82l46-3 47-3 11-17zm116 47v-25h60v50h-60v-25zm350-120v-145h50v68l14 11 13 11 10-12c6-7 18-28 27-45l17-33h29c17 0 30 2 30 4 0 3-16 32-36 66l-37 61 32 32c38 40 39 47 4 47h-27l-38-37-38-37v154h-50v-145zm-1433 41-26-24-7-26-6-26 6-34 6-33 19-17c10-9 32-21 49-26l32-8 34 9 35 10 21 26 20 26v89l-29 29-29 29h-99l-26-24zm107-32 16-15v-68l-16-15c-20-21-43-20-66 1l-18 16v60l17 19c20 22 46 23 67 2zm141 31-25-24-2-28c-2-48 3-77 18-100l14-22 35-10 35-9 35 9 35 10 15 28 14 29-25 6-26 7-15-21-14-20h-38l-15 22c-9 12-16 32-16 43s7 31 16 43l15 22h18c10 0 24-7 31-15l13-16 20 3c11 2 22 8 24 15l4 11-22 21-23 21h-97l-24-25zm835-80v-105h60v210h-60v-105zm143 90-22-16-10-36-11-37 11-38 10-38 24-16 24-16 35-1 35-1 24 13c14 7 30 24 35 36l11 23-26 7-25 6-15-21-14-20h-39l-16 25-16 25 6 35 7 35 25 6 25 6 18-16c20-18 47-21 56-5l7 10-23 25-22 24h-93l-21-15zm-907-241c-9-8-16-19-16-23 0-13 33-39 54-42 11-2 21-10 24-16l4-13-18-7-17-6-12 16c-7 10-17 17-24 17-15 0-14-23 1-38l12-12h64l12 15 12 14-4 18-3 18-39 18-39 19 13 8 14 9 19-10c10-6 23-9 29-7l11 4-17 17-17 17h-48l-15-16zm534 1v-17l11 4c6 2 11 8 11 13s-5 11-11 13l-11 4v-17zm52-12-9-18 6-45 6-45 23-3 22-3v10c0 6-4 11-10 11h-10v58l13 6 12 6-12 6c-7 3-13 12-13 20 0 20-17 18-28-3zm-461-27-12-15 3-27 3-27 16-10 16-10 26 7 27 6v22l-30-7-30-7v22h60v18c0 24-19 42-46 42h-22l-11-14zm54-16 6-10h-41v10c0 6 6 10 14 10s18-4 21-10zm57 18c-7-7-12-24-12-38s5-31 12-38l12-12h57l6 15c8 22-4 30-21 16l-15-13-11 7-10 6v51l30-7 30-7v10c0 22-59 29-78 10zm98-25c0-21 4-44 8-50l8-13 37 2 37 1v97h-19l-3-37-3-38-17-3-18-3v81h-30v-37zm120-13v-50h30v71l15 5c8 4 15 10 15 15v9h-60v-50zm80 1v-51h31l-3 47-3 46-12 5-13 4v-51zm110 39c0-5 7-28 17-51l16-42-16-12c-22-16-21-25 2-25 24 0 33 12 59 83l21 57h-27l-12-32-12-33-14 33c-13 30-34 44-34 22zm-625-462-40-43 43 40c39 36 47 45 39 45-2 0-21-19-42-42zm615 29c0-2 15-16 33-33l32-29-29 33c-28 30-36 37-36 29zM94 1438l-7-13 8 7 8 8 16-13 16-12-14 18c-16 20-18 21-27 5zm2876 8c0-2 8-10 18-17l17-14-14 18c-13 16-21 21-21 13zm-105-98-90-93 93 90c85 83 97 95 89 95-1 0-43-42-92-92zm-1436 14-54-28-32-47-32-48-7-45-6-45 12-44 12-44 35-41c40-46 72-65 134-79l43-10 50 10 51 9 37 25 38 25 25 39 26 38 2 28 2 27-43 13-43 13-33-29-34-29h-39l-41 30-41 29-6-9c-3-6-15-10-26-10h-19v40l35 17 35 17 28-27 28-27h41l17 19c10 11 30 23 45 26l27 6 37-16 37-15v17c0 10-9 36-19 59l-18 40-42 35-41 36-39 11c-21 7-59 12-84 12h-45l-53-28zm1481-99-85-88 88 85c48 46 87 86 87 87 0 8-11-3-90-84zm-2630 14c0-2 15-16 33-33l32-29-29 33c-28 30-36 37-36 29zm5-137c66-66 122-120 125-120 2 0-49 54-115 120s-122 120-125 120c-2 0 49-54 115-120zm808 20v-55l4 28c2 15 2 39 0 55l-4 27v-55zm889 0v-35l5 18c2 9 2 25 0 35l-5 17v-35zm-767-300c21-22 41-40 44-40s-13 18-34 40-41 40-44 40 13-18 34-40zm634-7-34-38 38 34c20 19 37 36 37 38 0 8-8 0-41-34zM700 735c52-52 97-95 100-95 2 0-38 43-90 95s-97 95-100 95c-2 0 38-43 90-95zm823-12c9-2 23-2 30 0l12 5h-60l18-5zm592-105-100-103 103 100c56 55 102 101 102 102 0 8-12-4-105-99zM232 630v-25l5 13c2 6 2 18 0 25l-5 12v-25zm2601-60v-45l4 23c2 12 2 32 0 45l-4 22v-45zm-683-45c-41-41-72-75-69-75 2 0 38 34 79 75s72 75 69 75c-2 0-38-34-79-75zm-1065-35c33-33 62-60 64-60 3 0-21 27-54 60s-62 60-64 60c-3 0 21-27 54-60zm-35-95c63-63 117-115 120-115 2 0-47 52-110 115S943 510 940 510c-2 0 47-52 110-115zm-780 51c0-2 8-10 18-17l17-14-14 18c-13 16-21 21-21 13zm2355-17c-4-6-5-12-2-15 2-3 7 2 10 11 7 17 1 20-8 4zm124-56-34-38 38 34c20 19 37 36 37 38 0 8-8 0-41-34zm-969-80-65-68 68 65c62 60 72 70 64 70-1 0-32-30-67-67zm858 20c7-3 16-2 19 1 4 3-2 6-13 5l-19-1 13-5zm-1069-70-14-18 18 14c16 13 21 21 13 21-2 0-10-8-17-17zm211-80-85-88 88 85c48 46 87 86 87 87 0 8-11-3-90-84zm-410-78c47-47 87-85 90-85 2 0-33 38-80 85s-87 85-90 85c-2 0 33-38 80-85zm124-47-29-33 33 29c30 28 37 36 29 36-2 0-16-15-33-32zm86-3c19-19 36-35 39-35s-10 16-29 35-36 35-39 35 10-16 29-35z"/></g><g fill="#4c8397" transform="matrix(.1 0 0 -.1 0 300)"><path d="M600 2145v-145h210v50H660v240h-60v-145zm740 0v-145h50v68l14 11 13 11 10-12c6-7 18-28 27-45l17-33h29c17 0 30 2 30 4 0 3-16 32-36 66l-37 61 39 40 38 39h-68l-38-37-38-37v154h-50v-145zm347 138c-4-3-7-69-7-145v-138h59l3 53 3 52 40 3c61 4 84 11 105 32l20 20v34c0 48-8 65-41 81l-28 15h-74c-40 0-77-3-80-7zm157-65 11-18-11-17-11-18-47-3-46-3v82l46-3 47-3 11-17zm116 47v-25h60v50h-60v-25zm350-120v-145h50v68l14 11 13 11 10-12c6-7 18-28 27-45l17-33h29c17 0 30 2 30 4 0 3-16 32-36 66l-37 61 32 32c38 40 39 47 4 47h-27l-38-37-38-37v154h-50v-145zm-1433 41-26-24-7-26-6-26 6-34 6-33 19-17c10-9 32-21 49-26l32-8 34 9 35 10 21 26 20 26v89l-29 29-29 29h-99l-26-24zm107-32 16-15v-68l-16-15c-20-21-43-20-66 1l-18 16v60l17 19c20 22 46 23 67 2zm141 31-25-24-2-28c-2-48 3-77 18-100l14-22 35-10 35-9 35 9 35 10 15 28 14 29-25 6-26 7-15-21-14-20h-38l-15 22c-9 12-16 32-16 43s7 31 16 43l15 22h18c10 0 24-7 31-15l13-16 20 3c11 2 22 8 24 15l4 11-22 21-23 21h-97l-24-25zm835-80v-105h60v210h-60v-105zm143 90-22-16-10-36-11-37 11-38 10-38 24-16 24-16 35-1 35-1 24 13c14 7 30 24 35 36l11 23-26 7-25 6-15-21-14-20h-39l-16 25-16 25 6 35 7 35 25 6 25 6 18-16c20-18 47-21 56-5l7 10-23 25-22 24h-93l-21-15zm-907-241c-9-8-16-19-16-23 0-13 33-39 54-42 11-2 21-10 24-16l4-13-18-7-17-6-12 16c-7 10-17 17-24 17-15 0-14-23 1-38l12-12h64l12 15 12 14-4 18-3 18-39 18-39 19 13 8 14 9 19-10c10-6 23-9 29-7l11 4-17 17-17 17h-48l-15-16zm534 1v-17l11 4c6 2 11 8 11 13s-5 11-11 13l-11 4v-17zm52-12-9-18 6-45 6-45 23-3 22-3v10c0 6-4 11-10 11h-10v58l13 6 12 6-12 6c-7 3-13 12-13 20 0 20-17 18-28-3zm-461-27-12-15 3-27 3-27 16-10 16-10 26 7 27 6v22l-30-7-30-7v22h60v18c0 24-19 42-46 42h-22l-11-14zm54-16 6-10h-41v10c0 6 6 10 14 10s18-4 21-10zm57 18c-7-7-12-24-12-38s5-31 12-38l12-12h57l6 15c8 22-4 30-21 16l-15-13-11 7-10 6v51l30-7 30-7v10c0 22-59 29-78 10zm98-25c0-21 4-44 8-50l8-13 37 2 37 1v97h-19l-3-37-3-38-17-3-18-3v81h-30v-37zm120-13v-50h30v71l15 5c8 4 15 10 15 15v9h-60v-50zm80 1v-51h31l-3 47-3 46-12 5-13 4v-51zm110 39c0-5 7-28 17-51l16-42-16-12c-22-16-21-25 2-25 24 0 33 12 59 83l21 57h-27l-12-32-12-33-14 33c-13 30-34 44-34 22zm-10-433c0-2 15-16 33-33l32-29-29 33c-28 30-36 37-36 29zm1140-41c0-2 8-10 18-17l17-14-14 18c-13 16-21 21-21 13zm-65-58-50-53 53 50c28 27 52 51 52 52 0 8-9-1-55-49zm-1476-26-54-28-32-47-32-48-7-45-6-45 12-44 12-44 35-41c40-46 72-65 134-79l43-10 50 10 51 9 37 25 38 25 25 39 26 38 2 28 2 27-43 13-43 13-33-29-34-29h-39l-41 30-41 29-6-9c-3-6-15-10-26-10h-19v40l35 17 35 17 28-27 28-27h41l17 19c10 11 30 23 45 26l27 6 37-16 37-15v17c0 10-9 36-19 59l-18 40-42 35-41 36-39 11c-21 7-59 12-84 12h-45l-53-28zm1451-129-55-58 58 55c53 50 62 60 54 60-1 0-27-26-57-57zM340 1085c35-36 67-65 69-65 3 0-24 29-59 65s-67 65-69 65c-3 0 24-29 59-65zm1509-232-34-38 38 34c20 19 37 36 37 38 0 8-8 0-41-34zM740 695c30-30 57-55 59-55 3 0-19 25-49 55s-57 55-59 55c-3 0 19-25 49-55zm783 28c9-2 23-2 30 0l12 5h-60l18-5zm652-45-40-43 43 40c39 36 47 45 39 45-2 0-21-19-42-42zm658-108v-45l4 23c2 12 2 32 0 45l-4 22v-45zm-724-87-34-38 38 34c20 19 37 36 37 38 0 8-8 0-41-34zM1100 345c35-36 67-65 69-65 3 0-24 29-59 65s-67 65-69 65c-3 0 24-29 59-65zm709-22-34-38 38 34c20 19 37 36 37 38 0 8-8 0-41-34zm-85-215-29-33 33 29c17 17 32 31 32 33 0 8-8 1-36-29zm-324-53c30-30 57-55 59-55 3 0-19 25-49 55s-57 55-59 55c-3 0 19-25 49-55z"/></g><g fill="#6d6d6d" transform="matrix(.1 0 0 -.1 0 300)"><path d="M1830 1487c0-2 15-16 33-33l32-29-29 33c-28 30-36 37-36 29zm1140-41c0-2 8-10 18-17l17-14-14 18c-13 16-21 21-21 13zm-65-58-50-53 53 50c28 27 52 51 52 52 0 8-9-1-55-49zm-25-155-55-58 58 55c53 50 62 60 54 60-1 0-27-26-57-57zM340 1085c35-36 67-65 69-65 3 0-24 29-59 65s-67 65-69 65c-3 0 24-29 59-65zm1509-232-34-38 38 34c20 19 37 36 37 38 0 8-8 0-41-34zM740 695c30-30 57-55 59-55 3 0-19 25-49 55s-57 55-59 55c-3 0 19-25 49-55zm783 28c9-2 23-2 30 0l12 5h-60l18-5zm652-45-40-43 43 40c39 36 47 45 39 45-2 0-21-19-42-42zm658-108v-45l4 23c2 12 2 32 0 45l-4 22v-45zm-724-87-34-38 38 34c20 19 37 36 37 38 0 8-8 0-41-34zM1100 345c35-36 67-65 69-65 3 0-24 29-59 65s-67 65-69 65c-3 0 24-29 59-65zm709-22-34-38 38 34c20 19 37 36 37 38 0 8-8 0-41-34zm-85-215-29-33 33 29c17 17 32 31 32 33 0 8-8 1-36-29zm-324-53c30-30 57-55 59-55 3 0-19 25-49 55s-57 55-59 55c-3 0 19-25 49-55z"/></g></g></svg>