<?xml version="1.0" encoding="UTF-8" standalone="no"?>
<svg
   version="1.2"
   width="340.34mm"
   height="349.51mm"
   viewBox="0 0 34034 34951"
   preserveAspectRatio="xMidYMid"
   fill-rule="evenodd"
   stroke-width="28.222"
   stroke-linejoin="round"
   xml:space="preserve"
   id="svg130"
   sodipodi:docname="a7ypg-xgdmb.svg"
   xmlns:inkscape="http://www.inkscape.org/namespaces/inkscape"
   xmlns:sodipodi="http://sodipodi.sourceforge.net/DTD/sodipodi-0.dtd"
   xmlns="http://www.w3.org/2000/svg"
   xmlns:svg="http://www.w3.org/2000/svg"
   xmlns:ooo="http://xml.openoffice.org/svg/export"><sodipodi:namedview
   id="namedview132"
   pagecolor="#ffffff"
   bordercolor="#000000"
   borderopacity="0.25"
   inkscape:showpageshadow="2"
   inkscape:pageopacity="0.0"
   inkscape:pagecheckerboard="0"
   inkscape:deskcolor="#d1d1d1"
   inkscape:document-units="mm" />
 <defs
   class="ClipPathGroup"
   id="defs8">
  <clipPath
   id="presentation_clip_path"
   clipPathUnits="userSpaceOnUse">
   <rect
   x="0"
   y="0"
   width="34034"
   height="34951"
   id="rect2" />
  </clipPath>
  <clipPath
   id="presentation_clip_path_shrink"
   clipPathUnits="userSpaceOnUse">
   <rect
   x="34"
   y="34"
   width="33966"
   height="34882"
   id="rect5" />
  </clipPath>
 </defs>
 <defs
   class="TextShapeIndex"
   id="defs12">
  <g
   ooo:slide="id1"
   ooo:id-list="id3"
   id="g10" />
 </defs>
 <defs
   class="EmbeddedBulletChars"
   id="defs44">
  <g
   id="bullet-char-template-57356"
   transform="scale(0.00048828125,-0.00048828125)">
   <path
   d="M 580,1141 L 1163,571 580,0 -4,571 580,1141 Z"
   id="path14" />
  </g>
  <g
   id="bullet-char-template-57354"
   transform="scale(0.00048828125,-0.00048828125)">
   <path
   d="M 8,1128 L 1137,1128 1137,0 8,0 8,1128 Z"
   id="path17" />
  </g>
  <g
   id="bullet-char-template-10146"
   transform="scale(0.00048828125,-0.00048828125)">
   <path
   d="M 174,0 L 602,739 174,1481 1456,739 174,0 Z M 1358,739 L 309,1346 659,739 1358,739 Z"
   id="path20" />
  </g>
  <g
   id="bullet-char-template-10132"
   transform="scale(0.00048828125,-0.00048828125)">
   <path
   d="M 2015,739 L 1276,0 717,0 1260,543 174,543 174,936 1260,936 717,1481 1274,1481 2015,739 Z"
   id="path23" />
  </g>
  <g
   id="bullet-char-template-10007"
   transform="scale(0.00048828125,-0.00048828125)">
   <path
   d="M 0,-2 C -7,14 -16,27 -25,37 L 356,567 C 262,823 215,952 215,954 215,979 228,992 255,992 264,992 276,990 289,987 310,991 331,999 354,1012 L 381,999 492,748 772,1049 836,1024 860,1049 C 881,1039 901,1025 922,1006 886,937 835,863 770,784 769,783 710,716 594,584 L 774,223 C 774,196 753,168 711,139 L 727,119 C 717,90 699,76 672,76 641,76 570,178 457,381 L 164,-76 C 142,-110 111,-127 72,-127 30,-127 9,-110 8,-76 1,-67 -2,-52 -2,-32 -2,-23 -1,-13 0,-2 Z"
   id="path26" />
  </g>
  <g
   id="bullet-char-template-10004"
   transform="scale(0.00048828125,-0.00048828125)">
   <path
   d="M 285,-33 C 182,-33 111,30 74,156 52,228 41,333 41,471 41,549 55,616 82,672 116,743 169,778 240,778 293,778 328,747 346,684 L 369,508 C 377,444 397,411 428,410 L 1163,1116 C 1174,1127 1196,1133 1229,1133 1271,1133 1292,1118 1292,1087 L 1292,965 C 1292,929 1282,901 1262,881 L 442,47 C 390,-6 338,-33 285,-33 Z"
   id="path29" />
  </g>
  <g
   id="bullet-char-template-9679"
   transform="scale(0.00048828125,-0.00048828125)">
   <path
   d="M 813,0 C 632,0 489,54 383,161 276,268 223,411 223,592 223,773 276,916 383,1023 489,1130 632,1184 813,1184 992,1184 1136,1130 1245,1023 1353,916 1407,772 1407,592 1407,412 1353,268 1245,161 1136,54 992,0 813,0 Z"
   id="path32" />
  </g>
  <g
   id="bullet-char-template-8226"
   transform="scale(0.00048828125,-0.00048828125)">
   <path
   d="M 346,457 C 273,457 209,483 155,535 101,586 74,649 74,723 74,796 101,859 155,911 209,963 273,989 346,989 419,989 480,963 531,910 582,859 608,796 608,723 608,648 583,586 532,535 482,483 420,457 346,457 Z"
   id="path35" />
  </g>
  <g
   id="bullet-char-template-8211"
   transform="scale(0.00048828125,-0.00048828125)">
   <path
   d="M -4,459 L 1135,459 1135,606 -4,606 -4,459 Z"
   id="path38" />
  </g>
  <g
   id="bullet-char-template-61548"
   transform="scale(0.00048828125,-0.00048828125)">
   <path
   d="M 173,740 C 173,903 231,1043 346,1159 462,1274 601,1332 765,1332 928,1332 1067,1274 1183,1159 1299,1043 1357,903 1357,740 1357,577 1299,437 1183,322 1067,206 928,148 765,148 601,148 462,206 346,322 231,437 173,577 173,740 Z"
   id="path41" />
  </g>
 </defs>
 <g
   id="g49">
  <g
   id="id2"
   class="Master_Slide">
   <g
   id="bg-id2"
   class="Background" />
   <g
   id="bo-id2"
   class="BackgroundObjects" />
  </g>
 </g>
 <g
   class="SlideGroup"
   id="g128">
  <g
   id="g126">
   <g
   id="container-id1">
    <g
   id="id1"
   class="Slide"
   clip-path="url(#presentation_clip_path)">
     <g
   class="Page"
   id="g122">
      <g
   class="Graphic"
   id="g120">
       <g
   id="id3">
        <rect
   class="BoundingBox"
   stroke="none"
   fill="none"
   x="0"
   y="0"
   width="34951"
   height="34951"
   id="rect51" />
        <path
   fill="rgb(9,9,9)"
   stroke="none"
   d="M 16785,346 C 17165,137 17608,-12 18048,62 18500,130 18895,436 19093,832 19180,992 19205,1176 19301,1332 20429,3645 21569,5954 22702,8265 21426,8267 20150,8261 18874,8268 18440,7416 18036,6549 17602,5697 17585,5630 17533,5700 17528,5730 17100,6578 16666,7423 16230,8266 14941,8264 13653,8266 12364,8265 13566,5925 14764,3583 15965,1242 16189,908 16425,555 16785,346 Z"
   id="path53" />
        <path
   fill="rgb(9,9,9)"
   stroke="none"
   d="M 25624,14218 C 26966,16946 28310,19673 29646,22404 30723,21358 31799,20310 32875,19262 33156,19002 33409,18714 33708,18474 33978,18707 34211,18980 34488,19206 L 34488,19219 C 34240,19431 34020,19672 33783,19896 32573,21076 31359,22252 30151,23434 30755,24657 31353,25884 31958,27108 31998,27184 31969,27275 31999,27355 32322,28202 32243,29178 31818,29978 31486,30608 30919,31144 30212,31347 30097,31376 29977,31423 29859,31386 29827,30973 29801,30559 29772,30145 29775,30096 29749,30024 29805,29995 29910,29932 30029,29893 30124,29815 30407,29597 30571,29265 30665,28932 30750,28601 30761,28241 30652,27914 30509,27767 30444,27572 30352,27395 29893,26457 29430,25521 28974,24581 26649,26838 24328,29099 22007,31359 20795,32543 19576,33719 18369,34907 L 18356,34907 C 18054,34624 17759,34333 17467,34040 17162,34327 16874,34631 16559,34907 L 16515,34907 C 16364,34751 16205,34601 16050,34448 12640,31121 9221,27804 5813,24477 5295,25459 4798,26453 4285,27437 4247,27502 4161,27532 4143,27608 4024,28028 4062,28483 4229,28886 4369,29236 4646,29538 5008,29679 4980,30083 4941,30486 4912,30890 4909,30953 4888,31015 4864,31074 4410,31013 3990,30799 3651,30503 2698,29664 2357,28246 2793,27074 2842,26943 2860,26801 2922,26673 3491,25559 4066,24448 4633,23333 3271,22005 1907,20678 543,19351 508,19305 421,19248 484,19189 675,18976 893,18785 1095,18582 1137,18555 1190,18469 1244,18525 1499,18746 1728,18995 1974,19226 3036,20262 4104,21294 5162,22334 5224,22157 5324,21997 5406,21829 6707,19291 8008,16754 9310,14218 10600,14218 11890,14217 13179,14218 12496,15554 11809,16888 11120,18221 11101,18265 11065,18296 11017,18306 10220,18563 9423,18822 8627,19080 8573,19090 8544,19137 8522,19181 7797,20613 7049,22033 6330,23468 8974,26039 11615,28613 14259,31184 15026,31926 15782,32678 16557,33413 16599,33368 16641,33324 16683,33280 16011,32624 15337,31970 14665,31314 14626,31283 14593,31214 14641,31177 14865,30942 15106,30723 15336,30494 15388,30522 15441,30551 15484,30593 16139,31237 16803,31874 17457,32520 18144,31878 18803,31209 19484,30561 19522,30507 19594,30529 19631,30572 19858,30792 20085,31013 20309,31236 20233,31365 20113,31460 20007,31565 19419,32137 18830,32710 18242,33283 18284,33319 18325,33356 18366,33393 21725,30105 25105,26837 28466,23550 27794,22185 27123,20820 26454,19454 26434,19401 26393,19364 26338,19351 25621,19106 24906,18859 24190,18614 24095,18578 23990,18563 23904,18509 23849,18430 23815,18339 23771,18253 23111,16909 22453,15564 21790,14220 23068,14214 24346,14219 25624,14218 Z"
   id="path55" />
        <path
   fill="rgb(9,9,9)"
   stroke="none"
   d="M 14692,18489 C 13873,19140 13313,20092 13155,21111 13023,21908 13140,22739 13472,23478 13947,24526 14875,25376 15988,25754 17236,26200 18689,26039 19805,25337 20855,24689 21593,23585 21768,22385 21978,21052 21486,19633 20476,18708 19614,17886 18384,17456 17182,17531 16276,17584 15393,17928 14692,18489 Z M 20392,17735 C 21417,18440 22160,19526 22419,20723 22692,21956 22463,23289 21776,24360 21103,25422 20003,26224 18761,26538 17536,26853 16190,26710 15073,26124 14001,25565 13138,24625 12715,23513 12216,22249 12289,20785 12911,19574 13377,18657 14143,17887 15071,17406 15604,17128 16190,16947 16789,16868 18045,16705 19361,17015 20392,17735 Z"
   id="path57" />
        <path
   fill="rgb(76,130,151)"
   stroke="none"
   d="M 18728,19458 C 19507,19860 20036,20665 20115,21516 19964,21480 19811,21449 19662,21404 19507,21361 19408,21196 19238,21198 19045,21217 18845,21245 18677,21345 18489,21467 18348,21640 18191,21795 18074,21790 17949,21812 17838,21766 17720,21683 17601,21600 17496,21501 17406,21385 17349,21201 17168,21200 16964,21207 16756,21271 16594,21394 16491,21472 16346,21512 16296,21640 16222,21799 16347,21998 16523,22012 16718,22033 16851,21868 17007,21784 17059,21855 17119,21921 17190,21974 17389,22125 17580,22300 17825,22376 17955,22414 18081,22478 18219,22475 18302,22475 18368,22421 18422,22366 18604,22189 18762,21990 18952,21820 19063,21816 19182,21794 19286,21843 19538,21964 19817,22010 20089,22070 20037,22543 19823,22993 19516,23362 19115,23843 18530,24173 17903,24278 17348,24371 16762,24294 16257,24051 15709,23792 15258,23344 15005,22805 14771,22315 14701,21752 14813,21223 14941,20588 15328,20007 15868,19631 16684,19047 17845,18975 18728,19458 Z"
   id="path59" />
        <path
   fill="rgb(76,130,151)"
   stroke="none"
   d="M 6829,12235 L 6829,8979 7509,8979 7509,11682 9201,11682 9201,12235 6829,12235 Z"
   id="path61" />
        <path
   fill="rgb(76,130,151)"
   stroke="none"
   d="M 9533,11012 C 9533,10803 9586,10601 9692,10405 9798,10210 9948,10061 10142,9958 10336,9855 10552,9803 10791,9803 11161,9803 11463,9920 11700,10154 11936,10387 12054,10683 12054,11039 12054,11399 11935,11697 11696,11934 11458,12171 11158,12289 10796,12289 10572,12289 10358,12240 10156,12141 9952,12042 9798,11898 9692,11707 9586,11517 9533,11285 9533,11012 L 9533,11012 Z M 10196,11046 C 10196,11282 10253,11463 10368,11588 10483,11713 10625,11776 10793,11776 10962,11776 11104,11713 11218,11588 11332,11463 11390,11280 11390,11042 11390,10809 11332,10630 11218,10504 11104,10378 10962,10316 10793,10316 10625,10316 10483,10378 10368,10504 10253,10630 10196,10810 10196,11046 L 10196,11046 Z"
   id="path63" />
        <path
   fill="rgb(76,130,151)"
   stroke="none"
   d="M 14690,10560 L 14053,10672 C 14032,10548 13983,10455 13907,10392 13831,10329 13733,10298 13612,10298 13450,10298 13322,10352 13226,10461 13130,10569 13082,10750 13082,11004 13082,11285 13131,11485 13228,11601 13326,11718 13456,11776 13621,11776 13743,11776 13844,11742 13922,11674 14000,11606 14055,11489 14088,11324 L 14722,11428 C 14656,11712 14529,11927 14342,12072 14156,12217 13905,12289 13591,12289 13234,12289 12949,12179 12736,11960 12524,11740 12418,11436 12418,11048 12418,10655 12524,10350 12738,10131 12951,9912 13239,9803 13603,9803 13900,9803 14136,9866 14312,9990 14487,10115 14613,10305 14690,10560 L 14690,10560 Z"
   id="path65" />
        <path
   fill="rgb(76,130,151)"
   stroke="none"
   d="M 15156,12235 L 15156,8952 15802,8952 15802,10694 16559,9857 17354,9857 16520,10726 17414,12235 16717,12235 16103,11167 15802,11474 15802,12235 15156,12235 Z"
   id="path67" />
        <path
   fill="rgb(76,130,151)"
   stroke="none"
   d="M 19111,12235 L 19111,8952 20204,8952 C 20618,8952 20887,8969 21013,9002 21206,9051 21368,9158 21498,9323 21629,9488 21694,9701 21694,9962 21694,10164 21656,10333 21581,10471 21506,10608 21410,10716 21294,10794 21179,10872 21061,10924 20942,10950 20779,10981 20544,10996 20236,10996 L 19792,10996 19792,12235 19111,12235 Z M 19792,9508 L 19792,10439 20165,10439 C 20433,10439 20612,10422 20702,10388 20793,10353 20864,10300 20915,10226 20966,10153 20992,10068 20992,9971 20992,9852 20956,9753 20884,9676 20812,9598 20721,9549 20611,9530 20529,9515 20366,9508 20121,9508 L 19792,9508 Z"
   id="path69" />
        <path
   fill="rgb(76,130,151)"
   stroke="none"
   d="M 22248,9535 L 22248,8952 22894,8952 22894,9535 22248,9535 Z M 22248,12235 L 22248,9857 22894,9857 22894,12235 22248,12235 Z"
   id="path71" />
        <path
   fill="rgb(76,130,151)"
   stroke="none"
   d="M 25687,10560 L 25050,10672 C 25028,10548 24980,10455 24904,10392 24828,10329 24729,10298 24608,10298 24447,10298 24319,10352 24223,10461 24127,10569 24079,10750 24079,11004 24079,11285 24128,11485 24225,11601 24322,11718 24453,11776 24617,11776 24740,11776 24840,11742 24918,11674 24997,11606 25052,11489 25084,11324 L 25719,11428 C 25653,11712 25526,11927 25339,12072 25152,12217 24902,12289 24587,12289 24230,12289 23946,12179 23733,11960 23521,11740 23414,11436 23414,11048 23414,10655 23521,10350 23734,10131 23947,9912 24236,9803 24599,9803 24897,9803 25133,9866 25308,9990 25484,10115 25610,10305 25687,10560 L 25687,10560 Z"
   id="path73" />
        <path
   fill="rgb(76,130,151)"
   stroke="none"
   d="M 26153,12235 L 26153,8952 26799,8952 26799,10694 27556,9857 28351,9857 27517,10726 28411,12235 27714,12235 27100,11167 26799,11474 26799,12235 26153,12235 Z"
   id="path75" />
        <path
   fill="rgb(157,156,156)"
   stroke="none"
   d="M 13381,13653 L 13692,13623 C 13711,13725 13749,13799 13806,13847 13863,13895 13940,13918 14037,13918 14140,13918 14218,13897 14270,13855 14322,13812 14348,13763 14348,13706 14348,13670 14337,13639 14315,13613 14293,13588 14255,13565 14200,13546 14163,13534 14078,13511 13944,13479 13773,13438 13653,13387 13584,13327 13487,13242 13438,13139 13438,13016 13438,12938 13461,12865 13507,12797 13552,12728 13618,12676 13704,12641 13790,12605 13894,12587 14016,12587 14214,12587 14364,12630 14464,12714 14564,12799 14617,12912 14622,13053 L 14303,13067 C 14289,12988 14260,12931 14215,12897 14170,12862 14102,12844 14012,12844 13919,12844 13847,12863 13794,12900 13761,12924 13744,12956 13744,12996 13744,13032 13760,13063 13791,13089 13831,13122 13929,13157 14085,13192 14240,13228 14355,13265 14429,13303 14504,13341 14562,13393 14604,13460 14646,13526 14667,13608 14667,13705 14667,13793 14642,13876 14591,13953 14541,14030 14470,14087 14378,14125 14286,14162 14171,14181 14034,14181 13834,14181 13680,14136 13573,14046 13466,13956 13402,13825 13381,13653 L 13381,13653 Z"
   id="path77" />
        <path
   fill="rgb(157,156,156)"
   stroke="none"
   d="M 15598,13799 L 15899,13848 C 15861,13956 15799,14038 15715,14095 15632,14151 15527,14179 15401,14179 15202,14179 15054,14116 14959,13989 14883,13887 14845,13759 14845,13604 14845,13419 14895,13274 14994,13170 15094,13065 15219,13013 15371,13013 15541,13013 15676,13067 15774,13177 15873,13286 15920,13454 15916,13681 L 15156,13681 C 15159,13768 15183,13836 15229,13885 15276,13934 15334,13958 15404,13958 15452,13958 15492,13945 15524,13920 15557,13895 15581,13855 15598,13799 L 15598,13799 Z M 15615,13500 C 15612,13415 15590,13350 15547,13305 15504,13261 15451,13239 15389,13239 15323,13239 15268,13262 15225,13309 15182,13356 15161,13419 15161,13500 L 15615,13500 Z"
   id="path79" />
        <path
   fill="rgb(157,156,156)"
   stroke="none"
   d="M 17162,13368 L 16863,13420 C 16853,13362 16830,13318 16794,13289 16759,13259 16712,13245 16655,13245 16580,13245 16520,13270 16475,13321 16430,13371 16408,13457 16408,13576 16408,13708 16430,13802 16476,13856 16522,13911 16583,13938 16660,13938 16718,13938 16765,13922 16802,13891 16838,13859 16864,13804 16879,13726 L 17177,13775 C 17146,13909 17086,14009 16999,14077 16911,14145 16793,14179 16646,14179 16478,14179 16345,14128 16245,14025 16145,13921 16096,13779 16096,13597 16096,13412 16146,13269 16246,13166 16346,13064 16481,13013 16652,13013 16791,13013 16902,13042 16984,13100 17067,13159 17126,13248 17162,13368 L 17162,13368 Z"
   id="path81" />
        <path
   fill="rgb(157,156,156)"
   stroke="none"
   d="M 18146,14154 L 18146,13987 C 18104,14046 18049,14093 17981,14128 17913,14162 17841,14179 17766,14179 17689,14179 17620,14163 17559,14130 17498,14097 17453,14050 17426,13991 17398,13931 17385,13849 17385,13744 L 17385,13038 17688,13038 17688,13551 C 17688,13708 17693,13804 17705,13839 17716,13874 17736,13902 17766,13923 17795,13944 17833,13954 17878,13954 17930,13954 17976,13940 18017,13913 18058,13885 18086,13850 18102,13810 18117,13769 18124,13668 18124,13509 L 18124,13038 18427,13038 18427,14154 18146,14154 Z"
   id="path83" />
        <path
   fill="rgb(157,156,156)"
   stroke="none"
   d="M 19032,14154 L 18728,14154 18728,13038 19010,13038 19010,13196 C 19058,13121 19102,13072 19140,13048 19179,13025 19222,13013 19271,13013 19340,13013 19407,13031 19471,13068 L 19377,13326 C 19326,13293 19279,13277 19234,13277 19192,13277 19156,13289 19127,13311 19097,13334 19074,13375 19057,13435 19040,13494 19032,13619 19032,13809 L 19032,14154 Z"
   id="path85" />
        <path
   fill="rgb(157,156,156)"
   stroke="none"
   d="M 19601,12886 L 19601,12613 19904,12613 19904,12886 19601,12886 Z M 19601,14154 L 19601,13038 19904,13038 19904,14154 19601,14154 Z"
   id="path87" />
        <path
   fill="rgb(157,156,156)"
   stroke="none"
   d="M 20741,13038 L 20741,13273 20534,13273 20534,13723 C 20534,13814 20536,13867 20540,13882 20544,13897 20553,13909 20567,13919 20581,13929 20598,13934 20618,13934 20646,13934 20687,13925 20740,13906 L 20766,14135 C 20695,14164 20616,14179 20526,14179 20471,14179 20422,14170 20378,14152 20334,14135 20302,14111 20282,14083 20261,14054 20247,14016 20239,13968 20233,13933 20229,13864 20229,13759 L 20229,13273 20090,13273 20090,13038 20229,13038 20229,12816 20534,12644 20534,13038 20741,13038 Z"
   id="path89" />
        <path
   fill="rgb(157,156,156)"
   stroke="none"
   d="M 20808,13038 L 21131,13038 21405,13830 21672,13038 21986,13038 21581,14112 21509,14306 C 21482,14371 21457,14421 21433,14455 21409,14490 21382,14517 21350,14539 21319,14560 21280,14577 21235,14588 21189,14601 21137,14607 21080,14607 21022,14607 20964,14601 20908,14588 L 20881,14358 C 20929,14367 20971,14371 21009,14371 21080,14371 21132,14351 21166,14311 21200,14270 21226,14219 21244,14157 L 20808,13038 Z"
   id="path91" />
        <path
   fill="rgb(255,255,255)"
   stroke="none"
   d="M 16150,1026 C 16496,532 16895,253 17456,113 18153,-61 18867,315 19128,993 19175,1114 19977,2768 20909,4668 21842,6568 22615,8146 22627,8175 22645,8217 22255,8228 20764,8228 L 18878,8228 18668,7796 C 18083,6593 17604,5658 17571,5658 17551,5658 17238,6236 16875,6943 L 16216,8228 14323,8228 C 13282,8228 12430,8219 12430,8207 12430,8139 16016,1218 16150,1026 Z"
   id="path93" />
        <path
   fill="rgb(255,255,255)"
   stroke="none"
   d="M 5810,24447 C 5798,24447 5448,25113 5032,25928 4615,26742 4242,27439 4201,27477 4158,27518 4108,27669 4080,27843 3986,28431 4189,29065 4585,29423 4704,29531 4845,29632 4899,29649 4989,29677 4995,29697 4972,29917 4958,30048 4936,30307 4922,30492 4879,31068 4884,31058 4674,31012 4290,30928 3941,30723 3579,30370 2699,29512 2422,28339 2808,27106 2874,26895 3215,26172 3645,25335 4043,24557 4434,23782 4514,23612 L 4658,23304 2564,21264 469,19224 814,18887 C 1003,18701 1178,18549 1202,18549 1226,18549 2129,19407 3209,20456 4288,21504 5180,22340 5190,22313 5201,22286 6133,20462 7261,18258 L 9312,14252 11217,14252 13122,14252 12089,16264 11055,18275 9807,18677 8558,19078 7446,21225 C 6835,22406 6333,23401 6332,23436 6330,23509 16493,33420 16570,33420 16599,33420 16642,33387 16666,33346 16702,33284 16543,33111 15663,32251 L 14616,31230 14982,30871 15349,30513 16395,31531 17441,32549 17915,32119 C 18176,31882 18482,31585 18596,31458 18710,31331 18977,31072 19188,30884 L 19574,30542 19917,30874 C 20106,31057 20261,31225 20261,31248 20261,31270 19799,31740 19234,32291 18260,33243 18212,33297 18283,33367 18355,33436 18616,33189 23419,28512 26203,25801 28480,23570 28480,23552 28480,23522 26461,19391 26432,19363 26424,19356 25869,19163 25197,18935 24526,18707 23952,18494 23922,18461 23868,18403 21861,14329 21861,14278 21861,14264 22705,14252 23736,14252 L 25612,14252 25970,14979 C 26167,15379 27068,17213 27972,19055 28876,20897 29624,22413 29634,22423 29644,22434 30561,21558 31673,20478 L 33694,18513 34069,18858 34445,19202 32281,21312 30118,23422 31010,25238 C 32032,27317 32109,27527 32145,28324 32173,28957 32088,29363 31815,29903 31428,30665 30684,31277 30059,31346 L 29876,31366 29847,30866 C 29831,30591 29808,30295 29795,30208 29773,30063 29782,30044 29911,29976 30433,29701 30734,29130 30734,28415 30734,28079 30726,28049 30521,27657 30403,27432 30021,26661 29671,25943 29320,25224 29016,24618 28994,24596 28969,24570 26996,26461 23656,29714 L 18358,34873 17914,34443 17470,34012 17033,34432 C 16793,34663 16579,34853 16557,34853 16536,34853 14114,32511 11175,29650 8237,26788 5823,24447 5810,24447 Z"
   id="path95" />
        <path
   fill="rgb(255,255,255)"
   stroke="none"
   d="M 12471,22513 C 12399,22078 12419,21234 12511,20803 12861,19171 14055,17779 15605,17197 16339,16922 16526,16891 17448,16891 18227,16890 18325,16899 18720,17003 18955,17064 19364,17217 19628,17341 21639,18287 22775,20354 22447,22471 22280,23553 21801,24471 20998,25248 20296,25928 19455,26372 18475,26579 18035,26672 17125,26691 16660,26617 14523,26277 12815,24604 12471,22513 Z M 21429,23551 C 21694,22998 21781,22621 21805,21919 21822,21419 21811,21236 21741,20908 21156,18150 18076,16704 15480,17968 14339,18524 13514,19540 13197,20782 13089,21208 13068,22162 13158,22572 13488,24066 14523,25259 15917,25750 16536,25968 16792,26005 17557,25989 18101,25977 18323,25954 18595,25881 19842,25548 20879,24695 21429,23551 Z"
   id="path97" />
        <path
   fill="rgb(157,156,156)"
   stroke="none"
   d="M 13746,14108 C 13590,14042 13425,13853 13425,13741 13425,13604 13649,13639 13737,13789 13870,14017 14377,13949 14377,13703 14377,13598 14305,13555 13957,13455 13606,13354 13468,13229 13468,13012 13468,12692 13916,12509 14308,12668 14454,12727 14593,12878 14593,12977 14593,13071 14371,13036 14265,12925 14107,12759 13728,12801 13728,12985 13728,13094 13793,13133 14147,13236 14360,13298 14486,13361 14547,13437 14664,13582 14664,13827 14548,13971 14401,14153 14010,14220 13746,14108 L 13746,14108 Z"
   id="path99" />
        <path
   fill="rgb(76,130,151)"
   stroke="none"
   d="M 13649,14091 C 13536,14024 13446,13900 13409,13763 13379,13651 13372,13658 13535,13643 13613,13636 13680,13634 13684,13638 13688,13643 13700,13673 13710,13706 13734,13783 13790,13855 13851,13883 14010,13958 14236,13923 14317,13812 14342,13776 14349,13756 14349,13711 14350,13608 14298,13565 14109,13516 13823,13440 13784,13429 13709,13394 13607,13347 13532,13278 13487,13190 13455,13126 13452,13112 13452,13020 13452,12932 13456,12912 13483,12854 13540,12734 13670,12642 13831,12609 13920,12590 14138,12592 14228,12613 14383,12649 14514,12742 14567,12856 14593,12911 14624,13036 14614,13045 14611,13047 14541,13052 14457,13056 L 14304,13063 14297,13022 C 14284,12943 14215,12874 14124,12850 14099,12844 14037,12841 13982,12843 13905,12847 13873,12854 13828,12876 13705,12937 13709,13057 13836,13120 13867,13135 13982,13171 14092,13200 14203,13229 14330,13267 14374,13285 14480,13328 14569,13408 14617,13503 14651,13569 14653,13578 14653,13694 14653,13814 14652,13818 14613,13895 14544,14031 14444,14107 14284,14147 14186,14172 13990,14182 13895,14168 13806,14154 13698,14121 13649,14091 Z"
   id="path101" />
        <path
   fill="rgb(76,130,151)"
   stroke="none"
   d="M 14853,13605 C 14853,13422 14905,13276 15006,13172 15105,13070 15223,13020 15367,13020 15519,13020 15635,13060 15733,13148 15834,13237 15892,13379 15908,13576 L 15915,13673 15535,13673 15156,13673 15156,13714 C 15156,13853 15263,13959 15403,13959 15497,13959 15553,13924 15588,13842 15595,13824 15610,13810 15619,13810 15643,13810 15882,13850 15887,13855 15899,13867 15818,13993 15768,14039 15652,14146 15505,14188 15312,14168 15026,14139 14853,13926 14853,13605 Z M 15621,13480 C 15621,13467 15613,13430 15603,13399 15561,13261 15410,13194 15285,13257 15212,13294 15156,13390 15156,13475 L 15156,13505 15388,13505 15621,13505 15621,13480 Z"
   id="path103" />
        <path
   fill="rgb(76,130,151)"
   stroke="none"
   d="M 16562,14167 C 16342,14142 16183,14002 16123,13784 16100,13699 16100,13489 16123,13406 16150,13308 16194,13230 16259,13166 16369,13057 16499,13015 16691,13023 16918,13032 17053,13119 17130,13303 L 17155,13362 17061,13380 C 17009,13389 16945,13400 16918,13404 L 16868,13411 16855,13369 C 16805,13205 16530,13197 16446,13357 16409,13428 16393,13556 16409,13669 16433,13856 16512,13941 16657,13940 16771,13939 16840,13890 16867,13792 16875,13765 16886,13742 16892,13740 16905,13735 17156,13774 17164,13783 17172,13790 17146,13861 17111,13930 17020,14107 16812,14197 16562,14167 L 16562,14167 Z"
   id="path105" />
        <path
   fill="rgb(76,130,151)"
   stroke="none"
   d="M 17689,14167 C 17582,14150 17481,14082 17438,14000 17399,13926 17394,13861 17394,13446 L 17394,13041 17540,13041 17685,13041 17688,13439 C 17692,13814 17693,13838 17713,13872 17746,13926 17786,13950 17851,13955 17928,13961 17987,13944 18040,13900 18121,13833 18123,13821 18128,13407 L 18132,13041 18277,13041 18422,13041 18422,13594 18422,14147 18287,14147 18151,14147 18151,14062 18151,13977 18094,14035 C 17987,14142 17837,14191 17689,14167 L 17689,14167 Z"
   id="path107" />
        <path
   fill="rgb(76,130,151)"
   stroke="none"
   d="M 18735,13594 L 18735,13041 18871,13041 19006,13041 19006,13123 19007,13204 19031,13173 C 19143,13028 19233,12992 19380,13036 19475,13064 19475,13048 19383,13291 L 19374,13314 19328,13294 C 19270,13268 19208,13268 19151,13293 19115,13309 19100,13324 19078,13369 19038,13449 19028,13559 19028,13875 L 19028,14147 18882,14147 18735,14147 18735,13594 Z"
   id="path109" />
        <path
   fill="rgb(76,130,151)"
   stroke="none"
   d="M 19612,12751 L 19612,12620 19758,12620 19904,12620 19904,12751 19904,12883 19758,12883 19612,12883 19612,12751 Z"
   id="path111" />
        <path
   fill="rgb(76,130,151)"
   stroke="none"
   d="M 19612,13594 L 19612,13041 19758,13041 19904,13041 19904,13594 19904,14147 19758,14147 19612,14147 19612,13594 Z"
   id="path113" />
        <path
   fill="rgb(76,130,151)"
   stroke="none"
   d="M 20455,14166 C 20369,14153 20304,14111 20271,14047 L 20244,13994 20241,13634 20238,13273 20168,13273 20098,13273 20098,13157 20098,13041 20169,13041 20239,13041 20239,12928 20240,12815 20385,12734 20531,12653 20531,12847 20531,13041 20634,13041 20736,13041 20736,13157 20736,13273 20634,13273 20531,13273 20531,13582 20531,13891 20558,13915 C 20581,13936 20592,13939 20641,13933 20673,13930 20706,13924 20716,13921 20735,13914 20738,13927 20754,14069 L 20760,14133 20692,14150 C 20601,14172 20528,14177 20455,14166 L 20455,14166 Z"
   id="path115" />
        <path
   fill="rgb(76,130,151)"
   stroke="none"
   d="M 20946,14593 C 20912,14588 20912,14587 20905,14512 20901,14471 20895,14422 20892,14404 L 20886,14372 20987,14372 C 21095,14373 21128,14363 21172,14312 21200,14280 21245,14188 21245,14163 21245,14151 21150,13898 21034,13601 20918,13303 20823,13056 20823,13051 20823,13045 20891,13041 20974,13041 L 21124,13041 21145,13096 C 21157,13127 21218,13305 21282,13492 21346,13680 21402,13829 21407,13824 21411,13819 21474,13641 21547,13428 L 21679,13041 21829,13041 21980,13041 21968,13070 C 21962,13086 21860,13357 21741,13673 21480,14366 21478,14372 21439,14432 21395,14499 21357,14531 21283,14564 21226,14590 21203,14594 21099,14595 21033,14597 20965,14596 20946,14593 L 20946,14593 Z"
   id="path117" />
       </g>
      </g>
     </g>
    </g>
   </g>
  </g>
 </g>
</svg>
